C:\GBW_MyPrograms\KinderuniversiteitApp\Resultaten\Ellis_group\Model_Ellis\Model_Ellis_v1.mot
version=1
nRows=18
nColumns=31
inDegrees=yes
endheader
                time	         pelvis_tilt	           pelvis_tx	           pelvis_ty	       hip_flexion_r	        knee_angle_r	       ankle_angle_r	       hip_flexion_l	        knee_angle_l	       ankle_angle_l	    lumbar_extension	          arm_flex_r	          arm_flex_l	hamstrings_r/activation	bifemsh_r/activation	glut_max_r/activation	iliopsoas_r/activation	rect_fem_r/activation	  vasti_r/activation	gastroc_r/activation	 soleus_r/activation	tib_ant_r/activation	hamstrings_l/activation	bifemsh_l/activation	glut_max_l/activation	iliopsoas_l/activation	rect_fem_l/activation	  vasti_l/activation	gastroc_l/activation	 soleus_l/activation	tib_ant_l/activation	
          0.00000000	         -7.33765494	          0.00000000	          0.14131030	          7.83074951	         -2.20710476	        -36.12082956	         -3.05922157	         11.00305499	        -16.55416229	         -2.30455806	          1.79740231	          1.77685077	          0.58959059	          0.55769383	          0.32076874	          0.44837517	          0.19090844	          0.06206293	          0.17909658	          0.12145118	          0.58508663	          0.52227596	          0.43905198	          0.35382320	          0.43906495	          0.24749814	          0.28312344	          0.50861716	          0.27525491	          0.27001089	
          0.00202233	         -9.10916046	         -0.00009240	          0.13822216	         10.71867986	         -2.95721259	        -33.93071511	         -4.59491397	         11.02900373	         -5.01815080	         -1.01269678	          1.20874055	          1.18857748	          0.60011445	          0.55721387	          0.33928512	          0.42818956	          0.17081530	          0.08691308	          0.17746671	          0.11911545	          0.58658184	          0.53724183	          0.43472729	          0.36497372	          0.41016772	          0.22705078	          0.28909719	          0.53432334	          0.30444897	          0.24273572	
          0.00404465	         -9.71643959	         -0.00017232	          0.13731354	         11.17496715	         -2.96679148	        -32.27197695	         -4.67821861	         10.98277744	          0.14971081	         -0.67572105	          1.00687866	          0.98738794	          0.60614912	          0.55688799	          0.35807185	          0.40732538	          0.15144154	          0.10686922	          0.17519628	          0.11479092	          0.58632658	          0.54795846	          0.43012597	          0.37653932	          0.38319398	          0.20603781	          0.29483562	          0.54834093	          0.29966216	          0.22093441	
          0.00606698	         -9.94525361	         -0.00021569	          0.13705363	         11.30361758	         -2.97590063	        -31.33735647	         -4.75398594	         10.95754321	          2.50314308	         -0.60115738	          0.96007186	          0.94112650	          0.61041705	          0.55662822	          0.37584481	          0.38671613	          0.13423630	          0.12336761	          0.17226020	          0.10892398	          0.58448709	          0.55622366	          0.42558132	          0.38619880	          0.35786916	          0.18572641	          0.30032381	          0.54961743	          0.28089453	          0.20462001	
          0.00808931	        -10.03504544	         -0.00023616	          0.13694597	         11.33035803	         -2.98246206	        -30.70946180	         -4.78833665	         10.93923600	          3.66714233	         -0.59763093	          0.98338726	          0.96468692	          0.61418720	          0.55681939	          0.39206729	          0.36702612	          0.11925010	          0.13673426	          0.16876717	          0.10162825	          0.58072897	          0.56304922	          0.42140382	          0.39310860	          0.33399720	          0.16709152	          0.30550879	          0.53784440	          0.25622311	          0.19449597	
          0.01011163	        -10.07635896	         -0.00024555	          0.13681864	         11.27370175	         -2.97963919	        -30.00518290	         -4.73035832	         10.92281928	          4.41079566	         -0.60254814	          1.04426905	          1.02592250	          0.61781201	          0.55771141	          0.40650935	          0.34874400	          0.10626356	          0.14705513	          0.16481781	          0.09289372	          0.57419964	          0.56868927	          0.41791341	          0.39675736	          0.31148038	          0.15079107	          0.31040574	          0.51953453	          0.22921678	          0.19192916	
          0.01213396	        -10.04324105	         -0.00025254	          0.13746444	         11.41920509	         -3.12395119	        -29.18748213	          2.60995487	         -1.43244417	          5.45215255	         -0.61773553	          1.10854751	          1.09067943	          0.62124795	          0.55944529	          0.41887917	          0.33300167	          0.09502129	          0.15435797	          0.16055164	          0.08262879	          0.56311622	          0.57275933	          0.41541197	          0.39723981	          0.29015683	          0.13778197	          0.31544408	          0.49674690	          0.20122884	          0.19596528	
          0.01415629	        -10.15107314	         -0.00025121	          0.13738724	         11.00964892	         -3.04913909	        -27.06676020	          3.47498717	         -2.04901150	          5.80031747	         -0.61955426	          1.19374891	          1.17639659	          0.62456449	          0.56210102	          0.42863802	          0.32278166	          0.08529818	          0.15847127	          0.15659295	          0.07095176	          0.54497747	          0.57586887	          0.41566885	          0.38764029	          0.28399844	          0.12337350	          0.31804899	          0.47872876	          0.17379403	          0.20120237	
          0.01617861	        -10.41155676	         -0.00024284	          0.13712623	         10.64326625	         -3.02892736	        -23.20124043	          3.90146086	         -2.11851635	          6.20393412	         -0.65355322	          1.25376890	          1.23722102	          0.62774595	          0.56573044	          0.43591524	          0.32159653	          0.07658859	          0.15961819	          0.15479837	          0.05872805	          0.51924371	          0.57794237	          0.41796523	          0.37141083	          0.30597113	          0.10779161	          0.31840888	          0.46919738	          0.14723827	          0.20186691	
          0.01820094	        -10.95668104	         -0.00022469	          0.13629515	         11.34691551	         -3.53298535	        -16.06452410	          3.95867882	         -4.06140200	          7.04619753	         -0.80014068	          1.26221513	          1.24761817	          0.63097435	          0.57029272	          0.44178358	          0.32884420	          0.06790215	          0.15822592	          0.16191388	          0.05027029	          0.48756349	          0.57926490	          0.42074640	          0.35213155	          0.33156019	          0.09117287	          0.31784277	          0.46732582	          0.12114434	          0.19393714	
          0.02022327	        -11.44115463	         -0.00021883	          0.13555544	         11.68332188	         -3.93152841	         -7.17881305	          4.47610667	         -4.16881674	          7.78412603	         -0.91704920	          1.33364234	          1.32192502	          0.63422800	          0.57544099	          0.44399172	          0.35445948	          0.06211348	          0.15475872	          0.19686573	          0.05802221	          0.45071581	          0.57776694	          0.42227020	          0.33332105	          0.35803684	          0.07751647	          0.31891246	          0.46254816	          0.09442798	          0.17861441	
          0.02224559	        -11.34730882	         -0.00022710	          0.13557576	          9.00782165	         -2.99552131	         -1.63004152	          5.58062577	         -2.31992131	          6.15302317	         -0.81174381	          1.38925755	          1.37793894	          0.63773430	          0.58026095	          0.44676368	          0.37842649	          0.05602357	          0.14996153	          0.26504640	          0.10769459	          0.41165709	          0.57579512	          0.42065201	          0.31894328	          0.37651480	          0.06616138	          0.32267233	          0.45298548	          0.07105375	          0.15865093	
          0.02426792	        -11.30985635	         -0.00021864	          0.13545763	          8.28363657	         -2.87658495	          1.63386223	          6.46065717	         -2.57536708	          4.64120503	         -0.78417744	          1.39538982	          1.38459781	          0.64079084	          0.58491073	          0.44977860	          0.40081287	          0.04910195	          0.14373061	          0.32140039	          0.18998371	          0.37285685	          0.57222430	          0.41683589	          0.30428292	          0.39272617	          0.05455460	          0.32797100	          0.45229432	          0.04840202	          0.13507805	
          0.02629025	        -11.32616992	         -0.00020544	          0.13537849	          8.07776636	         -2.83631478	          3.13225690	          6.70764700	         -2.62319142	          3.68577944	         -0.77555924	          1.39540201	          1.38526411	          0.64330918	          0.58948622	          0.45230623	          0.42293395	          0.04188464	          0.13617735	          0.36485637	          0.25430635	          0.33569873	          0.56046159	          0.40992721	          0.28871831	          0.40781727	          0.04393885	          0.33523125	          0.45967214	          0.02585272	          0.10966072	
          0.02831257	        -11.37259600	         -0.00018946	          0.13534358	          8.13218188	         -2.83108804	          3.49191479	          6.69755397	         -2.63489686	          2.75369386	         -0.77185308	          1.40621536	          1.39695460	          0.64549614	          0.59392601	          0.45565211	          0.44355487	          0.03335964	          0.12771597	          0.40036682	          0.30693784	          0.30026986	          0.53787218	          0.39758749	          0.27520526	          0.41637873	          0.03470780	          0.34555766	          0.47055097	          0.01048775	          0.08409766	
          0.03033490	        -11.49393057	         -0.00018459	          0.13538370	          8.40845339	         -2.87086462	          3.06817987	          6.38884331	         -2.61156113	          1.33992740	         -0.79462743	          1.42533436	          1.41746318	          0.64715014	          0.59805860	          0.46026651	          0.46294088	          0.02320415	          0.11862439	          0.43004625	          0.35095732	          0.26628900	          0.50697788	          0.37842247	          0.26707155	          0.41174256	          0.02781247	          0.35925835	          0.48214445	          0.01153738	          0.05958824	
          0.03235723	        -11.95971674	         -0.00022375	          0.13476761	          9.12897148	         -2.92563060	          1.58985867	         -2.37802623	         10.74023229	         -1.76884189	         -0.91618274	          1.47797955	          1.47238181	          0.64722810	          0.60150302	          0.45139363	          0.48610060	          0.04696340	          0.10918039	          0.45371059	          0.38631419	          0.23420037	          0.46777070	          0.35466625	          0.24601904	          0.43078879	          0.09699217	          0.37494766	          0.49337058	          0.01134423	          0.03791107	
          0.03437956	        -12.67304842	         -0.00036928	          0.13509607	         10.26194521	         -3.12516560	         -1.63066600	         -4.54358242	         11.10940080	         -7.13933979	         -1.34721605	          1.66044994	          1.65747915	          0.64511437	          0.60286374	          0.46989356	          0.43677047	          0.02942161	          0.10493118	          0.46786736	          0.41108983	          0.20443520	          0.47583271	          0.32815763	          0.29145686	          0.39192155	          0.15961305	          0.39031844	          0.49219361	          0.06838654	          0.02157285	
